<svg width="64" height="64" viewBox="0 0 64 64" fill="none" xmlns="http://www.w3.org/2000/svg">
<rect width="64" height="64" fill="#11111B"/>
<path fill-rule="evenodd" clip-rule="evenodd" d="M38.42 43.78L38.342 45.82H49.419L49.3579 34.82H38.7598L38.72 35.74H30.86L31.1461 34.82H20.5606L16.6343 45.82H27.7633L28.4 43.78H38.42ZM15.2065 49.82H26.5149L25.46 53.2H14L15.2065 49.82ZM49.4412 49.82H38.1892L38.06 53.2H49.46L49.4412 49.82ZM21.9884 30.82H32.3902L35.6 20.5H39.38L38.9331 30.82H49.3357L49.2579 16.82H26.9856L21.9884 30.82ZM28.4134 12.82H49.2357L49.22 10H29.42L28.4134 12.82Z" fill="#CDD6F4"/>
</svg>
