<svg width="64" height="50" viewBox="0 0 64 50" fill="none" xmlns="http://www.w3.org/2000/svg">
<path d="M21.3333 50C20.1481 50 19.037 49.7321 18 49.1964C16.963 48.6607 16.1185 47.9167 15.4667 46.9643L0 25L15.4667 3.03571C16.1185 2.08333 16.963 1.33929 18 0.803571C19.037 0.267857 20.1481 0 21.3333 0H56.8889C58.8444 0 60.5185 0.699405 61.9111 2.09821C63.3037 3.49702 64 5.17857 64 7.14286V42.8571C64 44.8214 63.3037 46.503 61.9111 47.9018C60.5185 49.3006 58.8444 50 56.8889 50H21.3333ZM21.3333 42.8571H56.8889V7.14286H21.3333L8.71111 25L21.3333 42.8571ZM29.8667 39.2857L39.1111 30L48.3556 39.2857L53.3333 34.2857L44.0889 25L53.3333 15.7143L48.3556 10.7143L39.1111 20L29.8667 10.7143L24.8889 15.7143L34.1333 25L24.8889 34.2857L29.8667 39.2857Z" fill="#CDD6F4"/>
</svg>
