<svg width="50" height="50" viewBox="0 0 50 50" fill="none" xmlns="http://www.w3.org/2000/svg">
<path d="M18.1592 50L17.1642 42C16.6252 41.7917 16.1173 41.5417 15.6405 41.25C15.1638 40.9583 14.6973 40.6458 14.2413 40.3125L6.8408 43.4375L0 31.5625L6.40547 26.6875C6.36401 26.3958 6.34328 26.1146 6.34328 25.8438V24.1562C6.34328 23.8854 6.36401 23.6042 6.40547 23.3125L0 18.4375L6.8408 6.5625L14.2413 9.6875C14.6973 9.35417 15.1741 9.04167 15.6716 8.75C16.1692 8.45833 16.6667 8.20833 17.1642 8L18.1592 0H31.8408L32.8358 8C33.3748 8.20833 33.8827 8.45833 34.3595 8.75C34.8362 9.04167 35.3027 9.35417 35.7587 9.6875L43.1592 6.5625L50 18.4375L43.5945 23.3125C43.636 23.6042 43.6567 23.8854 43.6567 24.1562V25.8438C43.6567 26.1146 43.6153 26.3958 43.5323 26.6875L49.9378 31.5625L43.097 43.4375L35.7587 40.3125C35.3027 40.6458 34.8259 40.9583 34.3284 41.25C33.8308 41.5417 33.3333 41.7917 32.8358 42L31.8408 50H18.1592ZM22.5124 45H27.4254L28.296 38.375C29.5813 38.0417 30.7732 37.5521 31.8719 36.9062C32.9706 36.2604 33.976 35.4792 34.8881 34.5625L41.0448 37.125L43.4701 32.875L38.1219 28.8125C38.3292 28.2292 38.4743 27.6146 38.5572 26.9688C38.6401 26.3229 38.6816 25.6667 38.6816 25C38.6816 24.3333 38.6401 23.6771 38.5572 23.0312C38.4743 22.3854 38.3292 21.7708 38.1219 21.1875L43.4701 17.125L41.0448 12.875L34.8881 15.5C33.976 14.5417 32.9706 13.7396 31.8719 13.0938C30.7732 12.4479 29.5813 11.9583 28.296 11.625L27.4876 5H22.5746L21.704 11.625C20.4187 11.9583 19.2268 12.4479 18.1281 13.0938C17.0294 13.7396 16.024 14.5208 15.1119 15.4375L8.95522 12.875L6.52985 17.125L11.8781 21.125C11.6708 21.75 11.5257 22.375 11.4428 23C11.3599 23.625 11.3184 24.2917 11.3184 25C11.3184 25.6667 11.3599 26.3125 11.4428 26.9375C11.5257 27.5625 11.6708 28.1875 11.8781 28.8125L6.52985 32.875L8.95522 37.125L15.1119 34.5C16.024 35.4583 17.0294 36.2604 18.1281 36.9062C19.2268 37.5521 20.4187 38.0417 21.704 38.375L22.5124 45ZM25.1244 33.75C27.529 33.75 29.5813 32.8958 31.2811 31.1875C32.9809 29.4792 33.8308 27.4167 33.8308 25C33.8308 22.5833 32.9809 20.5208 31.2811 18.8125C29.5813 17.1042 27.529 16.25 25.1244 16.25C22.6783 16.25 20.6157 17.1042 18.9366 18.8125C17.2575 20.5208 16.4179 22.5833 16.4179 25C16.4179 27.4167 17.2575 29.4792 18.9366 31.1875C20.6157 32.8958 22.6783 33.75 25.1244 33.75Z" fill="#CDD6F4"/>
</svg>
