<svg width="64" height="64" viewBox="0 0 64 64" fill="none" xmlns="http://www.w3.org/2000/svg">
<path d="M59.3939 64L41.2929 45.899H18.101V22.7071L0 4.60606L4.52525 0L64 59.4747L59.3939 64ZM24.5657 39.4343H34.8283L24.5657 29.1717V39.4343ZM50.4242 36.7677L43.9596 30.303V20.0404H33.697L27.2323 13.5758H50.4242V36.7677ZM11.6364 52.3636V58.8283C9.85859 58.8283 8.3367 58.1953 7.07071 56.9293C5.80471 55.6633 5.17172 54.1414 5.17172 52.3636H11.6364ZM5.17172 45.899V39.4343H11.6364V45.899H5.17172ZM5.17172 32.9697V26.5051H11.6364V32.9697H5.17172ZM5.17172 20.0404V13.5758H11.6364V20.0404H5.17172ZM18.101 58.8283V52.3636H24.5657V58.8283H18.101ZM18.101 7.11111V0.646465H24.5657V7.11111H18.101ZM31.0303 58.8283V52.3636H37.4949V58.8283H31.0303ZM31.0303 7.11111V0.646465H37.4949V7.11111H31.0303ZM43.9596 58.8283V52.3636H50.4242V58.8283H43.9596ZM43.9596 7.11111V0.646465H50.4242V7.11111H43.9596ZM56.8889 45.899V39.4343H63.3535V45.899H56.8889ZM56.8889 32.9697V26.5051H63.3535V32.9697H56.8889ZM56.8889 20.0404V13.5758H63.3535V20.0404H56.8889ZM56.8889 7.11111V0.646465C58.6667 0.646465 60.1886 1.27946 61.4545 2.54545C62.7205 3.81145 63.3535 5.33333 63.3535 7.11111H56.8889Z" fill="#CDD6F4"/>
</svg>
