<svg width="42" height="34" viewBox="0 0 42 34" fill="none" xmlns="http://www.w3.org/2000/svg">
<path d="M4.33329 33.6667C3.18746 33.6667 2.20656 33.2587 1.39058 32.4427C0.574612 31.6267 0.166626 30.6458 0.166626 29.5V4.50001C0.166626 3.35418 0.574612 2.37327 1.39058 1.5573C2.20656 0.74133 3.18746 0.333344 4.33329 0.333344H16.8333L21 4.50001H37.6666C38.8125 4.50001 39.7934 4.908 40.6093 5.72397C41.4253 6.53994 41.8333 7.52084 41.8333 8.66668V29.5C41.8333 30.6458 41.4253 31.6267 40.6093 32.4427C39.7934 33.2587 38.8125 33.6667 37.6666 33.6667H4.33329ZM4.33329 29.5H37.6666V8.66668H19.2812L15.1145 4.50001H4.33329V29.5Z" fill="#CDD6F4"/>
</svg>
