<svg width="53" height="53" viewBox="0 0 53 53" fill="none" xmlns="http://www.w3.org/2000/svg">
<path d="M35.5542 29.3708L32.3521 26.1687C32.6834 24.4389 32.1865 22.8194 30.8615 21.3104C29.5365 19.8014 27.825 19.2125 25.7271 19.5437L22.525 16.3417C23.1507 16.0472 23.7856 15.8264 24.4297 15.6792C25.0738 15.5319 25.7639 15.4583 26.5 15.4583C29.2605 15.4583 31.6068 16.4245 33.5391 18.3568C35.4714 20.289 36.4375 22.6354 36.4375 25.3958C36.4375 26.1319 36.3639 26.822 36.2167 27.4661C36.0695 28.1102 35.8487 28.7451 35.5542 29.3708ZM42.6209 36.3271L39.4188 33.2354C40.8174 32.168 42.0596 30.9995 43.1454 29.7297C44.2311 28.4599 45.1605 27.0153 45.9334 25.3958C44.0931 21.6785 41.4523 18.7248 38.011 16.5349C34.5697 14.345 30.7327 13.25 26.5 13.25C25.4327 13.25 24.3837 13.3236 23.3532 13.4708C22.3226 13.618 21.3105 13.8389 20.3167 14.1333L16.8938 10.7104C18.4028 10.0847 19.9487 9.61544 21.5313 9.30259C23.1139 8.98974 24.7702 8.83332 26.5 8.83332C32.0577 8.83332 37.008 10.37 41.3511 13.4432C45.6941 16.5165 48.841 20.5007 50.7917 25.3958C49.9452 27.5673 48.8318 29.5825 47.4516 31.4411C46.0714 33.2998 44.4612 34.9285 42.6209 36.3271ZM43.725 49.9083L34.45 40.7437C33.1618 41.1486 31.8645 41.4522 30.5579 41.6547C29.2513 41.8571 27.8987 41.9583 26.5 41.9583C20.9424 41.9583 15.9921 40.4217 11.649 37.3484C7.30594 34.2752 4.15907 30.291 2.20837 25.3958C2.98129 23.4451 3.95664 21.6325 5.13442 19.9578C6.31219 18.2831 7.6556 16.7833 9.16462 15.4583L3.09171 9.27499L6.18337 6.18332L46.8167 46.8167L43.725 49.9083ZM12.2563 18.55C11.1889 19.5069 10.2136 20.5559 9.33025 21.6969C8.44692 22.8378 7.6924 24.0708 7.06671 25.3958C8.90699 29.1132 11.5478 32.0668 14.9891 34.2568C18.4304 36.4467 22.2674 37.5417 26.5 37.5417C27.2362 37.5417 27.9539 37.4956 28.6532 37.4036C29.3525 37.3116 30.0702 37.2104 30.8063 37.1L28.8188 35.0021C28.4139 35.1125 28.0275 35.1953 27.6594 35.2505C27.2914 35.3057 26.9049 35.3333 26.5 35.3333C23.7396 35.3333 21.3933 34.3672 19.461 32.4349C17.5287 30.5026 16.5625 28.1562 16.5625 25.3958C16.5625 24.991 16.5901 24.6045 16.6454 24.2364C16.7006 23.8684 16.7834 23.4819 16.8938 23.0771L12.2563 18.55Z" fill="#CDD6F4"/>
</svg>
