<svg width="64" height="64" viewBox="0 0 64 64" fill="none" xmlns="http://www.w3.org/2000/svg">
<path d="M15.6524 52.0809L17.0666 53.4951L18.4808 52.0809L31.9999 38.5618L45.519 52.0809L46.9333 53.4951L48.3475 52.0809L52.0808 48.3475L53.495 46.9333L52.0808 45.5191L38.5617 32L52.0808 18.4809L53.495 17.0667L52.0808 15.6524L48.3475 11.9191L46.9333 10.5049L45.519 11.9191L31.9999 25.4382L18.4808 11.9191L17.0666 10.5049L15.6524 11.9191L11.919 15.6524L10.5048 17.0667L11.919 18.4809L25.4382 32L11.919 45.5191L10.5048 46.9333L11.919 48.3475L15.6524 52.0809Z" fill="#CDD6F4" stroke="black" stroke-width="4"/>
</svg>
