<svg width="64" height="64" viewBox="0 0 64 64" fill="none" xmlns="http://www.w3.org/2000/svg">
<path d="M0 64V59.2H8.88889V56.8H3.55556V52H8.88889V49.6H0V44.8H10.6667C11.6741 44.8 12.5185 45.1067 13.2 45.72C13.8815 46.3333 14.2222 47.0933 14.2222 48V51.2C14.2222 52.1067 13.8815 52.8667 13.2 53.48C12.5185 54.0933 11.6741 54.4 10.6667 54.4C11.6741 54.4 12.5185 54.7067 13.2 55.32C13.8815 55.9333 14.2222 56.6933 14.2222 57.6V60.8C14.2222 61.7067 13.8815 62.4667 13.2 63.08C12.5185 63.6933 11.6741 64 10.6667 64H0ZM0 41.6V32.8C0 31.8933 0.340741 31.1333 1.02222 30.52C1.7037 29.9067 2.54815 29.6 3.55556 29.6H8.88889V27.2H0V22.4H10.6667C11.6741 22.4 12.5185 22.7067 13.2 23.32C13.8815 23.9333 14.2222 24.6933 14.2222 25.6V31.2C14.2222 32.1067 13.8815 32.8667 13.2 33.48C12.5185 34.0933 11.6741 34.4 10.6667 34.4H5.33333V36.8H14.2222V41.6H0ZM5.33333 19.2V4.8H0V0H10.6667V19.2H5.33333ZM21.3333 54.4V48H64V54.4H21.3333ZM21.3333 35.2V28.8H64V35.2H21.3333ZM21.3333 16V9.6H64V16H21.3333Z" fill="#CDD6F4"/>
</svg>
