<svg width="64" height="64" viewBox="0 0 64 64" fill="none" xmlns="http://www.w3.org/2000/svg">
<path d="M22.1091 46.5455C15.903 46.2222 10.6667 43.8303 6.4 39.3697C2.13333 34.9091 0 29.5434 0 23.2727C0 16.8081 2.26263 11.3131 6.78788 6.78788C11.3131 2.26263 16.8081 0 23.2727 0C29.5434 0 34.9091 2.13333 39.3697 6.4C43.8303 10.6667 46.2222 15.903 46.5455 22.1091L38.4 19.6848C37.5596 16.1939 35.7495 13.3333 32.9697 11.103C30.1899 8.87273 26.9576 7.75758 23.2727 7.75758C19.0061 7.75758 15.3535 9.27677 12.3152 12.3152C9.27677 15.3535 7.75758 19.0061 7.75758 23.2727C7.75758 26.9576 8.87273 30.1899 11.103 32.9697C13.3333 35.7495 16.1939 37.5596 19.6848 38.4L22.1091 46.5455ZM56.3394 64L39.7576 47.4182L34.9091 62.0606L23.2727 23.2727L62.0606 34.9091L47.4182 39.7576L64 56.3394L56.3394 64Z" fill="#CDD6F4"/>
</svg>
