<svg width="34" height="44" viewBox="0 0 34 44" fill="none" xmlns="http://www.w3.org/2000/svg">
<path d="M17 23.0833C15.2639 23.0833 13.7882 22.4757 12.573 21.2604C11.3577 20.0451 10.75 18.5694 10.75 16.8333C10.75 15.0972 11.3577 13.6215 12.573 12.4063C13.7882 11.191 15.2639 10.5833 17 10.5833C18.7362 10.5833 20.2118 11.191 21.4271 12.4063C22.6424 13.6215 23.25 15.0972 23.25 16.8333C23.25 18.5694 22.6424 20.0451 21.4271 21.2604C20.2118 22.4757 18.7362 23.0833 17 23.0833ZM4.50004 43.9167V27.8229C3.1806 26.3646 2.15629 24.6979 1.42712 22.8229C0.697957 20.9479 0.333374 18.9514 0.333374 16.8333C0.333374 12.1806 1.94796 8.23958 5.17712 5.01042C8.40629 1.78125 12.3473 0.166668 17 0.166668C21.6528 0.166668 25.5938 1.78125 28.823 5.01042C32.0521 8.23958 33.6667 12.1806 33.6667 16.8333C33.6667 18.9514 33.3021 20.9479 32.573 22.8229C31.8438 24.6979 30.8195 26.3646 29.5 27.8229V43.9167L17 39.75L4.50004 43.9167ZM17 29.3333C20.4723 29.3333 23.4237 28.1181 25.8542 25.6875C28.2848 23.2569 29.5 20.3056 29.5 16.8333C29.5 13.3611 28.2848 10.4097 25.8542 7.97917C23.4237 5.54861 20.4723 4.33333 17 4.33333C13.5278 4.33333 10.5764 5.54861 8.14587 7.97917C5.71532 10.4097 4.50004 13.3611 4.50004 16.8333C4.50004 20.3056 5.71532 23.2569 8.14587 25.6875C10.5764 28.1181 13.5278 29.3333 17 29.3333ZM8.66671 37.7188L17 35.5833L25.3334 37.7188V31.2604C24.1181 31.9549 22.8073 32.5017 21.4011 32.901C19.9948 33.3003 18.5278 33.5 17 33.5C15.4723 33.5 14.0052 33.3003 12.599 32.901C11.1927 32.5017 9.88198 31.9549 8.66671 31.2604V37.7188Z" fill="#CDD6F4"/>
</svg>
