<svg width="75" height="19" viewBox="0 0 75 19" fill="none" xmlns="http://www.w3.org/2000/svg">
<path d="M9.375 18.75C6.79688 18.75 4.58984 17.832 2.75391 15.9961C0.917969 14.1602 0 11.9531 0 9.375C0 6.79688 0.917969 4.58984 2.75391 2.75391C4.58984 0.917969 6.79688 0 9.375 0C11.9531 0 14.1602 0.917969 15.9961 2.75391C17.832 4.58984 18.75 6.79688 18.75 9.375C18.75 11.9531 17.832 14.1602 15.9961 15.9961C14.1602 17.832 11.9531 18.75 9.375 18.75ZM37.5 18.75C34.9219 18.75 32.7148 17.832 30.8789 15.9961C29.043 14.1602 28.125 11.9531 28.125 9.375C28.125 6.79688 29.043 4.58984 30.8789 2.75391C32.7148 0.917969 34.9219 0 37.5 0C40.0781 0 42.2852 0.917969 44.1211 2.75391C45.957 4.58984 46.875 6.79688 46.875 9.375C46.875 11.9531 45.957 14.1602 44.1211 15.9961C42.2852 17.832 40.0781 18.75 37.5 18.75ZM65.625 18.75C63.0469 18.75 60.8398 17.832 59.0039 15.9961C57.168 14.1602 56.25 11.9531 56.25 9.375C56.25 6.79688 57.168 4.58984 59.0039 2.75391C60.8398 0.917969 63.0469 0 65.625 0C68.2031 0 70.4102 0.917969 72.2461 2.75391C74.082 4.58984 75 6.79688 75 9.375C75 11.9531 74.082 14.1602 72.2461 15.9961C70.4102 17.832 68.2031 18.75 65.625 18.75Z" fill="#CDD6F4"/>
</svg>
