<svg width="54" height="53" viewBox="0 0 54 53" fill="none" xmlns="http://www.w3.org/2000/svg">
<path d="M26.5 35.3333C29.2605 35.3333 31.6068 34.3672 33.5391 32.4349C35.4714 30.5026 36.4375 28.1563 36.4375 25.3958C36.4375 22.6354 35.4714 20.2891 33.5391 18.3568C31.6068 16.4245 29.2605 15.4583 26.5 15.4583C23.7396 15.4583 21.3933 16.4245 19.461 18.3568C17.5287 20.2891 16.5625 22.6354 16.5625 25.3958C16.5625 28.1563 17.5287 30.5026 19.461 32.4349C21.3933 34.3672 23.7396 35.3333 26.5 35.3333ZM26.5 31.3583C24.8438 31.3583 23.436 30.7787 22.2766 29.6193C21.1172 28.4599 20.5375 27.0521 20.5375 25.3958C20.5375 23.7396 21.1172 22.3318 22.2766 21.1724C23.436 20.013 24.8438 19.4333 26.5 19.4333C28.1563 19.4333 29.5641 20.013 30.7235 21.1724C31.8829 22.3318 32.4625 23.7396 32.4625 25.3958C32.4625 27.0521 31.8829 28.4599 30.7235 29.6193C29.5641 30.7787 28.1563 31.3583 26.5 31.3583ZM26.5 41.9583C21.1264 41.9583 16.2313 40.4585 11.8146 37.4589C7.39796 34.4592 4.19587 30.4382 2.20837 25.3958C4.19587 20.3535 7.39796 16.3325 11.8146 13.3328C16.2313 10.3332 21.1264 8.83334 26.5 8.83334C31.8737 8.83334 36.7688 10.3332 41.1855 13.3328C45.6021 16.3325 48.8042 20.3535 50.7917 25.3958C48.8042 30.4382 45.6021 34.4592 41.1855 37.4589C36.7688 40.4585 31.8737 41.9583 26.5 41.9583ZM26.5 37.5417C30.6591 37.5417 34.4776 36.4467 37.9558 34.2568C41.4339 32.0669 44.0931 29.1132 45.9334 25.3958C44.0931 21.6785 41.4339 18.7248 37.9558 16.5349C34.4776 14.345 30.6591 13.25 26.5 13.25C22.341 13.25 18.5224 14.345 15.0443 16.5349C11.5662 18.7248 8.90699 21.6785 7.06671 25.3958C8.90699 29.1132 11.5662 32.0669 15.0443 34.2568C18.5224 36.4467 22.341 37.5417 26.5 37.5417Z" fill="#CDD6F4"/>
</svg>
