<svg width="64" height="64" viewBox="0 0 64 64" fill="none" xmlns="http://www.w3.org/2000/svg">
<path d="M26.4 50.6667C22.0888 50.6667 18.3888 49.2667 15.3 46.4667C12.2111 43.6667 10.6666 40.1778 10.6666 36C10.6666 31.8222 12.2111 28.3333 15.3 25.5333C18.3888 22.7333 22.0888 21.3333 26.4 21.3333H43.2L36.2666 14.4L40 10.6667L53.3333 24L40 37.3333L36.2666 33.6L43.2 26.6667H26.4C23.6 26.6667 21.1666 27.5556 19.1 29.3333C17.0333 31.1111 16 33.3333 16 36C16 38.6667 17.0333 40.8889 19.1 42.6667C21.1666 44.4445 23.6 45.3333 26.4 45.3333H45.3333V50.6667H26.4Z" fill="#CDD6F4"/>
</svg>
