<svg width="48" height="50" viewBox="0 0 48 50" fill="none" xmlns="http://www.w3.org/2000/svg">
<path d="M17.5156 50C12.7161 50 8.597 48.25 5.1582 44.75C1.7194 41.25 0 36.8889 0 31.6667C0 26.4444 1.7194 22.0833 5.1582 18.5833C8.597 15.0833 12.7161 13.3333 17.5156 13.3333H36.2188L28.5 4.66667L32.6562 0L47.5 16.6667L32.6562 33.3333L28.5 28.6667L36.2188 20H17.5156C14.3984 20 11.6895 21.1111 9.38867 23.3333C7.08789 25.5556 5.9375 28.3333 5.9375 31.6667C5.9375 35 7.08789 37.7778 9.38867 40C11.6895 42.2222 14.3984 43.3333 17.5156 43.3333H38.5938V50H17.5156Z" fill="#CDD6F4"/>
</svg>
