<svg width="64" height="64" viewBox="0 0 64 64" fill="none" xmlns="http://www.w3.org/2000/svg">
<path d="M32 53.3333C26.0444 53.3333 21 51.2667 16.8666 47.1333C12.7333 43 10.6666 37.9555 10.6666 32C10.6666 26.0444 12.7333 21 16.8666 16.8667C21 12.7333 26.0444 10.6667 32 10.6667C35.0666 10.6667 38 11.3 40.8 12.5667C43.6 13.8333 46 15.6444 48 18V10.6667H53.3333V29.3333H34.6666V24H45.8666C44.4444 21.5111 42.5 19.5555 40.0333 18.1333C37.5666 16.7111 34.8888 16 32 16C27.5555 16 23.7777 17.5555 20.6666 20.6667C17.5555 23.7778 16 27.5555 16 32C16 36.4444 17.5555 40.2222 20.6666 43.3333C23.7777 46.4444 27.5555 48 32 48C35.4222 48 38.5111 47.0222 41.2666 45.0667C44.0222 43.1111 45.9555 40.5333 47.0666 37.3333H52.6666C51.4222 42.0444 48.8889 45.8889 45.0666 48.8667C41.2444 51.8444 36.8888 53.3333 32 53.3333Z" fill="#CDD6F4"/>
</svg>
