<svg width="64" height="64" viewBox="0 0 64 64" fill="none" xmlns="http://www.w3.org/2000/svg">
<path d="M41.8909 46.5455C48.097 46.2222 53.3333 43.8303 57.6 39.3697C61.8667 34.9091 64 29.5434 64 23.2727C64 16.8081 61.7374 11.3131 57.2121 6.78788C52.6869 2.26263 47.1919 0 40.7273 0C34.4566 0 29.0909 2.13333 24.6303 6.4C20.1697 10.6667 17.7778 15.903 17.4545 22.1091L25.6 19.6848C26.4404 16.1939 28.2505 13.3333 31.0303 11.103C33.8101 8.87273 37.0424 7.75758 40.7273 7.75758C44.9939 7.75758 48.6465 9.27677 51.6848 12.3152C54.7232 15.3535 56.2424 19.0061 56.2424 23.2727C56.2424 26.9576 55.1273 30.1899 52.897 32.9697C50.6667 35.7495 47.8061 37.5596 44.3152 38.4L41.8909 46.5455ZM7.66061 64L24.2424 47.4182L29.0909 62.0606L40.7273 23.2727L1.9394 34.9091L16.5818 39.7576L3.8147e-06 56.3394L7.66061 64Z" fill="#CDD6F4"/>
</svg>
