<svg width="57" height="57" viewBox="0 0 57 57" fill="none" xmlns="http://www.w3.org/2000/svg">
<path d="M56.625 12.875V50.375C56.625 52.0938 56.013 53.5651 54.7891 54.7891C53.5651 56.013 52.0938 56.625 50.375 56.625H6.625C4.90625 56.625 3.4349 56.013 2.21094 54.7891C0.986979 53.5651 0.375 52.0938 0.375 50.375V6.625C0.375 4.90625 0.986979 3.4349 2.21094 2.21094C3.4349 0.986979 4.90625 0.375 6.625 0.375H44.125L56.625 12.875ZM50.375 15.5312L41.4688 6.625H6.625V50.375H50.375V15.5312ZM28.5 47.25C31.1042 47.25 33.3177 46.3385 35.1406 44.5156C36.9635 42.6927 37.875 40.4792 37.875 37.875C37.875 35.2708 36.9635 33.0573 35.1406 31.2344C33.3177 29.4115 31.1042 28.5 28.5 28.5C25.8958 28.5 23.6823 29.4115 21.8594 31.2344C20.0365 33.0573 19.125 35.2708 19.125 37.875C19.125 40.4792 20.0365 42.6927 21.8594 44.5156C23.6823 46.3385 25.8958 47.25 28.5 47.25ZM9.75 22.25H37.875V9.75H9.75V22.25ZM6.625 15.5312V50.375V6.625V15.5312Z" fill="#CDD6F4"/>
</svg>
