<svg width="45" height="46" viewBox="0 0 45 46" fill="none" xmlns="http://www.w3.org/2000/svg">
<path d="M41.5 45.5L25.75 29.75C24.5 30.75 23.0625 31.5417 21.4375 32.125C19.8125 32.7083 18.0833 33 16.25 33C11.7083 33 7.86458 31.4271 4.71875 28.2812C1.57292 25.1354 0 21.2917 0 16.75C0 12.2083 1.57292 8.36458 4.71875 5.21875C7.86458 2.07292 11.7083 0.5 16.25 0.5C20.7917 0.5 24.6354 2.07292 27.7812 5.21875C30.9271 8.36458 32.5 12.2083 32.5 16.75C32.5 18.5833 32.2083 20.3125 31.625 21.9375C31.0417 23.5625 30.25 25 29.25 26.25L45 42L41.5 45.5ZM16.25 28C19.375 28 22.0312 26.9062 24.2188 24.7188C26.4062 22.5312 27.5 19.875 27.5 16.75C27.5 13.625 26.4062 10.9688 24.2188 8.78125C22.0312 6.59375 19.375 5.5 16.25 5.5C13.125 5.5 10.4688 6.59375 8.28125 8.78125C6.09375 10.9688 5 13.625 5 16.75C5 19.875 6.09375 22.5312 8.28125 24.7188C10.4688 26.9062 13.125 28 16.25 28Z" fill="#7F849C"/>
</svg>
