<svg width="53" height="50" viewBox="0 0 53 50" fill="none" xmlns="http://www.w3.org/2000/svg">
<path d="M10.0069 50V43.3333H33.4271C36.8906 43.3333 39.9006 42.2222 42.457 40C45.0134 37.7778 46.2916 35 46.2916 31.6667C46.2916 28.3333 45.0134 25.5556 42.457 23.3333C39.9006 21.1111 36.8906 20 33.4271 20H12.6458L21.2222 28.6667L16.6041 33.3333L0.111084 16.6667L16.6041 0L21.2222 4.66667L12.6458 13.3333H33.4271C38.7598 13.3333 43.3366 15.0833 47.1575 18.5833C50.9784 22.0833 52.8889 26.4444 52.8889 31.6667C52.8889 36.8889 50.9784 41.25 47.1575 44.75C43.3366 48.25 38.7598 50 33.4271 50H10.0069Z" fill="#CDD6F4"/>
</svg>
