<svg width="64" height="64" viewBox="0 0 64 64" fill="none" xmlns="http://www.w3.org/2000/svg">
<path d="M18.6666 50.6667V45.3333H37.6C40.4 45.3333 42.8333 44.4445 44.9 42.6667C46.9666 40.8889 48 38.6667 48 36C48 33.3333 46.9666 31.1111 44.9 29.3333C42.8333 27.5556 40.4 26.6667 37.6 26.6667H20.8L27.7333 33.6L24 37.3333L10.6666 24L24 10.6667L27.7333 14.4L20.8 21.3333H37.6C41.9111 21.3333 45.6111 22.7333 48.7 25.5333C51.7889 28.3333 53.3333 31.8222 53.3333 36C53.3333 40.1778 51.7889 43.6667 48.7 46.4667C45.6111 49.2667 41.9111 50.6667 37.6 50.6667H18.6666Z" fill="#CDD6F4"/>
</svg>
