<svg width="64" height="64" viewBox="0 0 64 64" fill="none" xmlns="http://www.w3.org/2000/svg">
<path d="M32.0001 42.6667C35.3334 42.6667 38.1667 41.5 40.5001 39.1667C42.8334 36.8333 44.0001 34 44.0001 30.6667C44.0001 27.3333 42.8334 24.5 40.5001 22.1667C38.1667 19.8333 35.3334 18.6667 32.0001 18.6667C28.6667 18.6667 25.8334 19.8333 23.5001 22.1667C21.1667 24.5 20.0001 27.3333 20.0001 30.6667C20.0001 34 21.1667 36.8333 23.5001 39.1667C25.8334 41.5 28.6667 42.6667 32.0001 42.6667ZM32.0001 37.8667C30.0001 37.8667 28.3001 37.1667 26.9001 35.7667C25.5001 34.3667 24.8001 32.6667 24.8001 30.6667C24.8001 28.6667 25.5001 26.9667 26.9001 25.5667C28.3001 24.1667 30.0001 23.4667 32.0001 23.4667C34.0001 23.4667 35.7001 24.1667 37.1001 25.5667C38.5001 26.9667 39.2001 28.6667 39.2001 30.6667C39.2001 32.6667 38.5001 34.3667 37.1001 35.7667C35.7001 37.1667 34.0001 37.8667 32.0001 37.8667ZM32.0001 50.6667C25.5112 50.6667 19.6001 48.8555 14.2667 45.2333C8.93342 41.6111 5.06675 36.7555 2.66675 30.6667C5.06675 24.5778 8.93342 19.7222 14.2667 16.1C19.6001 12.4778 25.5112 10.6667 32.0001 10.6667C38.489 10.6667 44.4001 12.4778 49.7334 16.1C55.0668 19.7222 58.9334 24.5778 61.3334 30.6667C58.9334 36.7555 55.0668 41.6111 49.7334 45.2333C44.4001 48.8555 38.489 50.6667 32.0001 50.6667ZM32.0001 45.3333C37.0223 45.3333 41.6334 44.0111 45.8334 41.3667C50.0334 38.7222 53.2445 35.1555 55.4668 30.6667C53.2445 26.1778 50.0334 22.6111 45.8334 19.9667C41.6334 17.3222 37.0223 16 32.0001 16C26.9779 16 22.3667 17.3222 18.1667 19.9667C13.9667 22.6111 10.7556 26.1778 8.53342 30.6667C10.7556 35.1555 13.9667 38.7222 18.1667 41.3667C22.3667 44.0111 26.9779 45.3333 32.0001 45.3333Z" fill="#CDD6F4"/>
</svg>
