<svg width="40" height="40" viewBox="0 0 40 40" fill="none" xmlns="http://www.w3.org/2000/svg">
<path d="M0 40L20 0L40 40H0ZM6.27273 35.7895H33.7273L20 8.42105L6.27273 35.7895ZM20 33.6842C20.5152 33.6842 20.947 33.4825 21.2955 33.0789C21.6439 32.6754 21.8182 32.1754 21.8182 31.5789C21.8182 30.9825 21.6439 30.4825 21.2955 30.0789C20.947 29.6754 20.5152 29.4737 20 29.4737C19.4848 29.4737 19.053 29.6754 18.7045 30.0789C18.3561 30.4825 18.1818 30.9825 18.1818 31.5789C18.1818 32.1754 18.3561 32.6754 18.7045 33.0789C19.053 33.4825 19.4848 33.6842 20 33.6842ZM18.1818 27.3684H21.8182V16.8421H18.1818V27.3684Z" fill="#CDD6F4"/>
</svg>
